<svg width="151" height="150" viewBox="0 0 151 150" fill="none" xmlns="http://www.w3.org/2000/svg">
<path d="M140.254 112.143H11.3035C7.34699 112.143 4.13959 115.341 4.13959 119.286V139.286C4.13959 143.231 7.34699 146.429 11.3035 146.429H140.254C144.211 146.429 147.418 143.231 147.418 139.286V119.286C147.418 115.341 144.211 112.143 140.254 112.143Z" stroke="#2B3A36" stroke-width="5"/>
<path d="M140.254 3.57143H11.3035C7.34699 3.57143 4.13959 6.7694 4.13959 10.7143V96.4286C4.13959 100.373 7.34699 103.571 11.3035 103.571H140.254C144.211 103.571 147.418 100.373 147.418 96.4286V10.7143C147.418 6.7694 144.211 3.57143 140.254 3.57143Z" stroke="#2B3A36" stroke-width="5"/>
</svg>
