<svg width="42" height="45" viewBox="0 0 42 45" fill="none" xmlns="http://www.w3.org/2000/svg">
<path d="M20 37C28.2843 37 35 30.2843 35 22C35 13.7157 28.2843 7 20 7C11.7157 7 5 13.7157 5 22C5 30.2843 11.7157 37 20 37Z" fill="#749F82"/>
<path d="M9.92953 45C8.31879 45 7.17785 44.5694 6.50671 43.7081C5.83557 42.799 5.5 41.6507 5.5 40.2632C5.5 38.8756 5.76846 37.2966 6.30537 35.5263C6.88702 33.7081 7.60291 31.9139 8.45302 30.1435C9.70582 27.5598 11.0705 24.7847 12.547 21.8182C14.0682 18.8517 15.8579 15.8134 17.9161 12.7034C18.5872 11.6986 19.3926 10.5024 20.3322 9.11483C21.3166 7.67943 22.4128 6.26794 23.6208 4.88038C24.8736 3.49282 26.2159 2.3445 27.6477 1.43541C29.0794 0.47847 30.5559 0 32.0772 0C33.33 0 34.2025 0.287082 34.6946 0.861246C35.2315 1.43541 35.5 2.20096 35.5 3.1579C35.5 4.06699 35.2987 5.11962 34.896 6.31579C34.4933 7.51196 33.9564 8.75598 33.2852 10.0478C32.3009 11.9617 30.9362 14.0431 29.1913 16.2919C27.4911 18.4928 25.5671 20.6938 23.4195 22.8947C21.2718 25.0478 19.057 27.0096 16.7752 28.7799C14.4933 30.5024 12.3009 31.8182 10.198 32.7273C9.61633 34.1148 9.14653 35.4545 8.78859 36.7464C8.47539 38.0383 8.31879 39.1388 8.31879 40.0478C8.31879 41.6268 8.90045 42.4163 10.0638 42.4163C11.585 42.4163 13.0168 41.8421 14.3591 40.6938C15.7013 39.4976 16.8647 38.0144 17.849 36.244C18.8781 34.4258 19.6163 32.6316 20.0638 30.8612C19.9295 30.5742 19.8624 30.2871 19.8624 30C19.8624 29.4258 20.0638 28.9234 20.4664 28.4928C20.9139 28.0622 21.3613 27.8469 21.8087 27.8469C22.2114 27.8469 22.547 28.0383 22.8154 28.4211C23.1286 28.8038 23.2405 29.4737 23.151 30.4306C23.4195 30.622 23.6432 30.7177 23.8221 30.7177C23.9564 30.7655 24.0906 30.8134 24.2248 30.8612C24.3591 30.8612 24.4933 30.8612 24.6275 30.8612C25.6566 30.8612 26.6409 30.5263 27.5805 29.8565C28.5649 29.1866 29.236 28.6842 29.594 28.3493C30.0861 27.8708 30.5336 27.6316 30.9362 27.6316C31.3837 27.6316 31.6074 27.8947 31.6074 28.4211C31.6074 28.756 31.4955 29.1388 31.2718 29.5694C31.0928 29.9522 30.7573 30.3828 30.2651 30.8612C28.6096 32.488 26.5067 33.3014 23.9564 33.3014C23.5984 33.3014 23.2629 33.2775 22.9497 33.2297C22.6812 33.134 22.4128 33.0383 22.1443 32.9426C21.5179 34.8086 20.6007 36.6746 19.3926 38.5407C18.2293 40.4067 16.8423 41.9617 15.2315 43.2057C13.6208 44.4019 11.8535 45 9.92953 45ZM18.9228 16.2919C18.1175 17.488 17.2673 18.8517 16.3725 20.3828C15.5224 21.9139 14.6946 23.4689 13.8893 25.0478C13.0839 26.5789 12.3904 27.9665 11.8087 29.2105C13.6432 28.0622 15.5 26.6746 17.3792 25.0478C19.3031 23.4211 21.1376 21.6746 22.8825 19.8086C24.6275 17.8947 26.2159 15.9569 27.6477 13.9952C29.0794 11.9856 30.2651 10.0957 31.2047 8.32536C32.2785 6.31579 32.8154 4.78469 32.8154 3.73206C32.8154 2.91866 32.4575 2.51196 31.7416 2.51196C30.6678 2.51196 29.5045 3.0622 28.2517 4.16268C27.0436 5.21531 25.8356 6.5311 24.6275 8.11005C23.4195 9.64115 22.3009 11.1723 21.2718 12.7034C20.2875 14.1866 19.5045 15.3828 18.9228 16.2919Z" fill="#2B3A36"/>
</svg>
