<svg width="150" height="150" viewBox="0 0 150 150" fill="none" xmlns="http://www.w3.org/2000/svg">
<path fill-rule="evenodd" clip-rule="evenodd" d="M9.77612 5.10949C8.52239 5.10949 7.32155 5.61118 6.4373 6.50179C5.5533 7.39216 5.05805 8.5981 5.05805 9.85401V97.4453C5.05805 98.8562 3.92577 100 2.52902 100C1.13228 100 0 98.8562 0 97.4453V9.85401C0 7.2381 1.03181 4.73091 2.866 2.88351C4.69994 1.03637 7.1857 0 9.77612 0H96.7413C97.4107 0 98.0529 0.268128 98.5269 0.745609L149.257 51.8405C149.733 52.3198 150 52.9708 150 53.6496V97.4453C150 98.8562 148.868 100 147.471 100C146.074 100 144.942 98.8562 144.942 97.4453V56.2044L96.7413 56.2044C96.0706 56.2044 95.4273 55.9352 94.953 55.4561C94.4787 54.977 94.2123 54.3272 94.2123 53.6496V5.10949H9.77612ZM99.2703 8.70962L141.353 51.0949L99.2703 51.0949V8.70962Z" fill="#2B3A36"/>
<path d="M51.6223 149C52.9557 149.373 54.2757 149.56 55.5823 149.56C56.969 149.56 58.1557 149.413 59.1423 149.12C60.129 148.853 60.9157 148.56 61.5023 148.24C62.1157 147.893 62.529 147.653 62.7423 147.52C63.169 147.28 63.569 147 63.9423 146.68C64.3423 146.333 64.5557 145.92 64.5823 145.44C64.609 145.147 64.569 144.867 64.4623 144.6C64.3557 144.333 64.209 144.053 64.0223 143.76C63.729 143.28 63.4223 142.933 63.1023 142.72C62.809 142.507 62.5023 142.4 62.1823 142.4C61.889 142.4 61.609 142.48 61.3423 142.64C61.0757 142.8 60.7957 142.973 60.5023 143.16L59.4223 143.76C58.969 144 58.409 144.213 57.7423 144.4C57.1023 144.56 56.329 144.64 55.4223 144.64C54.2757 144.64 53.1557 144.44 52.0623 144.04C50.969 143.64 49.9823 143.053 49.1023 142.28C48.249 141.48 47.569 140.507 47.0623 139.36C46.5557 138.187 46.3023 136.853 46.3023 135.36C46.3023 133.867 46.5557 132.547 47.0623 131.4C47.569 130.227 48.249 129.253 49.1023 128.48C49.9823 127.68 50.969 127.08 52.0623 126.68C53.1557 126.28 54.2757 126.08 55.4223 126.08C56.3823 126.08 57.1957 126.173 57.8623 126.36C58.5557 126.547 59.1023 126.76 59.5023 127C59.929 127.213 60.2223 127.373 60.3823 127.48C60.7557 127.72 61.0623 127.92 61.3023 128.08C61.569 128.24 61.849 128.32 62.1423 128.32C62.4623 128.32 62.7823 128.213 63.1023 128C63.4223 127.787 63.7423 127.453 64.0623 127C64.249 126.733 64.3957 126.48 64.5023 126.24C64.609 125.973 64.649 125.68 64.6223 125.36C64.5957 124.88 64.3823 124.48 63.9823 124.16C63.609 123.813 63.209 123.507 62.7823 123.24C62.569 123.107 62.1557 122.88 61.5423 122.56C60.929 122.213 60.129 121.893 59.1423 121.6C58.1557 121.307 56.9823 121.16 55.6223 121.16C54.289 121.187 52.9423 121.4 51.5823 121.8C50.249 122.173 48.969 122.733 47.7423 123.48C46.5423 124.227 45.4623 125.16 44.5023 126.28C43.569 127.4 42.8223 128.707 42.2623 130.2C41.7023 131.667 41.4223 133.32 41.4223 135.16C41.4223 137.027 41.7023 138.733 42.2623 140.28C42.8223 141.8 43.569 143.147 44.5023 144.32C45.4623 145.467 46.5557 146.44 47.7823 147.24C49.009 148.013 50.289 148.6 51.6223 149Z" fill="#2B3A36"/>
<path d="M73.6733 149.32C74.66 149.613 75.7533 149.76 76.9533 149.76C78.1533 149.76 79.34 149.587 80.5133 149.24C81.6866 148.92 82.7533 148.413 83.7133 147.72C84.6733 147.027 85.4333 146.133 85.9933 145.04C86.5533 143.947 86.8333 142.667 86.8333 141.2C86.8333 139.92 86.6333 138.84 86.2333 137.96C85.8333 137.053 85.2999 136.307 84.6333 135.72C83.9666 135.107 83.2066 134.6 82.3533 134.2C81.4999 133.8 80.6333 133.453 79.7533 133.16C78.8999 132.893 78.06 132.64 77.2333 132.4C76.4066 132.16 75.66 131.907 74.9933 131.64C74.3266 131.347 73.7933 130.987 73.3933 130.56C73.02 130.107 72.8333 129.533 72.8333 128.84C72.8333 128.333 72.9266 127.88 73.1133 127.48C73.3266 127.08 73.6066 126.747 73.9533 126.48C74.2999 126.187 74.7133 125.973 75.1933 125.84C75.7 125.68 76.2199 125.6 76.7533 125.6C77.4999 125.6 78.1266 125.667 78.6333 125.8C79.1666 125.933 79.6466 126.147 80.0733 126.44C80.4999 126.707 80.9266 127.067 81.3533 127.52C81.9933 128 82.5666 128.213 83.0733 128.16C83.6066 128.08 84.1533 127.68 84.7133 126.96C85.2733 126.267 85.5133 125.72 85.4333 125.32C85.38 124.893 85.0466 124.373 84.4333 123.76C84.2466 123.547 83.9399 123.293 83.5133 123C83.1133 122.68 82.5933 122.373 81.9533 122.08C81.34 121.76 80.5933 121.507 79.7133 121.32C78.8599 121.107 77.8866 121 76.7933 121C75.0866 121 73.5666 121.347 72.2333 122.04C70.8999 122.707 69.8599 123.627 69.1133 124.8C68.3666 125.947 67.9933 127.28 67.9933 128.8C67.9933 129.76 68.1133 130.6 68.3533 131.32C68.5933 132.04 68.9133 132.68 69.3133 133.24C69.7399 133.773 70.2199 134.24 70.7533 134.64C71.3133 135.04 71.9133 135.4 72.5533 135.72C73.1933 136.013 73.8333 136.267 74.4733 136.48C75.38 136.827 76.2733 137.147 77.1533 137.44C78.06 137.707 78.8733 138.013 79.5933 138.36C80.3133 138.68 80.8866 139.08 81.3133 139.56C81.7666 140.013 81.9933 140.6 81.9933 141.32C81.9933 142.2 81.7666 142.92 81.3133 143.48C80.8866 144.04 80.2866 144.467 79.5133 144.76C78.74 145.027 77.8333 145.16 76.7933 145.16C75.9933 145.16 75.1933 144.987 74.3933 144.64C73.5933 144.267 72.8733 143.653 72.2333 142.8C71.8599 142.32 71.4733 141.947 71.0733 141.68C70.7 141.413 70.2999 141.293 69.8733 141.32C69.4733 141.32 69.0333 141.533 68.5533 141.96C68.0733 142.36 67.7399 142.747 67.5533 143.12C67.3933 143.467 67.3666 143.827 67.4733 144.2C67.5799 144.573 67.8066 145 68.1533 145.48C68.3933 145.88 68.7666 146.32 69.2733 146.8C69.7799 147.28 70.3933 147.747 71.1133 148.2C71.8599 148.653 72.7133 149.027 73.6733 149.32Z" fill="#2B3A36"/>
<path d="M95.6655 149.32C96.6521 149.613 97.7455 149.76 98.9455 149.76C100.145 149.76 101.332 149.587 102.505 149.24C103.679 148.92 104.745 148.413 105.705 147.72C106.665 147.027 107.425 146.133 107.985 145.04C108.545 143.947 108.825 142.667 108.825 141.2C108.825 139.92 108.625 138.84 108.225 137.96C107.825 137.053 107.292 136.307 106.625 135.72C105.959 135.107 105.199 134.6 104.345 134.2C103.492 133.8 102.625 133.453 101.745 133.16C100.892 132.893 100.052 132.64 99.2255 132.4C98.3988 132.16 97.6521 131.907 96.9855 131.64C96.3188 131.347 95.7855 130.987 95.3855 130.56C95.0121 130.107 94.8255 129.533 94.8255 128.84C94.8255 128.333 94.9188 127.88 95.1055 127.48C95.3188 127.08 95.5988 126.747 95.9455 126.48C96.2921 126.187 96.7055 125.973 97.1855 125.84C97.6921 125.68 98.2121 125.6 98.7455 125.6C99.4921 125.6 100.119 125.667 100.625 125.8C101.159 125.933 101.639 126.147 102.065 126.44C102.492 126.707 102.919 127.067 103.345 127.52C103.985 128 104.559 128.213 105.065 128.16C105.599 128.08 106.145 127.68 106.705 126.96C107.265 126.267 107.505 125.72 107.425 125.32C107.372 124.893 107.039 124.373 106.425 123.76C106.239 123.547 105.932 123.293 105.505 123C105.105 122.68 104.585 122.373 103.945 122.08C103.332 121.76 102.585 121.507 101.705 121.32C100.852 121.107 99.8788 121 98.7855 121C97.0788 121 95.5588 121.347 94.2255 122.04C92.8921 122.707 91.8521 123.627 91.1055 124.8C90.3588 125.947 89.9855 127.28 89.9855 128.8C89.9855 129.76 90.1055 130.6 90.3455 131.32C90.5855 132.04 90.9055 132.68 91.3055 133.24C91.7321 133.773 92.2121 134.24 92.7455 134.64C93.3055 135.04 93.9055 135.4 94.5455 135.72C95.1855 136.013 95.8255 136.267 96.4655 136.48C97.3721 136.827 98.2655 137.147 99.1455 137.44C100.052 137.707 100.865 138.013 101.585 138.36C102.305 138.68 102.879 139.08 103.305 139.56C103.759 140.013 103.985 140.6 103.985 141.32C103.985 142.2 103.759 142.92 103.305 143.48C102.879 144.04 102.279 144.467 101.505 144.76C100.732 145.027 99.8255 145.16 98.7855 145.16C97.9855 145.16 97.1855 144.987 96.3855 144.64C95.5855 144.267 94.8655 143.653 94.2255 142.8C93.8521 142.32 93.4655 141.947 93.0655 141.68C92.6921 141.413 92.2921 141.293 91.8655 141.32C91.4655 141.32 91.0255 141.533 90.5455 141.96C90.0655 142.36 89.7321 142.747 89.5455 143.12C89.3855 143.467 89.3588 143.827 89.4655 144.2C89.5721 144.573 89.7988 145 90.1455 145.48C90.3855 145.88 90.7588 146.32 91.2655 146.8C91.7721 147.28 92.3855 147.747 93.1055 148.2C93.8521 148.653 94.7055 149.027 95.6655 149.32Z" fill="#2B3A36"/>
</svg>
