<svg width="150" height="150" viewBox="0 0 150 150" fill="none" xmlns="http://www.w3.org/2000/svg">
<path fill-rule="evenodd" clip-rule="evenodd" d="M9.77612 5.10164C8.52239 5.10164 7.32155 5.60256 6.4373 6.49181C5.5533 7.38081 5.05805 8.5849 5.05805 9.83888V97.2956C5.05805 98.7044 3.92577 99.8464 2.52902 99.8464C1.13228 99.8464 0 98.7044 0 97.2956V9.83888C0 7.22699 1.03181 4.72365 2.866 2.87908C4.69994 1.03478 7.1857 0 9.77612 0H96.7413C97.4107 0 98.0529 0.267716 98.5269 0.744464L149.257 51.7609C149.733 52.2395 150 52.8894 150 53.5673V97.2956C150 98.7044 148.868 99.8464 147.471 99.8464C146.074 99.8464 144.942 98.7044 144.942 97.2956V56.1181L96.7413 56.1181C96.0706 56.1181 95.4273 55.8493 94.953 55.371C94.4787 54.8926 94.2123 54.2438 94.2123 53.5673V5.10164H9.77612ZM99.2703 8.69625L141.353 51.0164L99.2703 51.0164V8.69625Z" fill="#2B3A36"/>
<path d="M59.6865 118.513C60.3779 118.858 60.7708 119.39 60.8651 120.111C60.9908 120.832 60.8179 121.49 60.3465 122.085C60.0008 122.555 59.5451 122.821 58.9793 122.884C58.4451 122.946 57.9108 122.837 57.3765 122.555C56.4651 122.085 55.5065 121.709 54.5008 121.427C53.4951 121.145 52.4265 121.004 51.2951 121.004C49.5036 121.004 47.8851 121.302 46.4393 121.897C45.0251 122.461 43.7993 123.291 42.7622 124.388C41.7251 125.453 40.9236 126.722 40.3579 128.194C39.8236 129.667 39.5565 131.296 39.5565 133.082C39.5565 135.056 39.8551 136.81 40.4522 138.345C41.0493 139.849 41.8665 141.134 42.9036 142.199C43.9722 143.233 45.2136 144.016 46.6279 144.549C48.0736 145.05 49.6293 145.3 51.2951 145.3C52.3636 145.3 53.4008 145.175 54.4065 144.925C55.4436 144.674 56.4179 144.298 57.3293 143.797C57.8951 143.515 58.4451 143.421 58.9793 143.515C59.5451 143.577 60.0008 143.844 60.3465 144.314C60.8808 144.972 61.0693 145.645 60.9122 146.334C60.7865 146.992 60.3936 147.494 59.7336 147.838C58.9479 148.277 58.0836 148.653 57.1408 148.966C56.1979 149.279 55.2393 149.53 54.2651 149.718C53.2908 149.906 52.3008 150 51.2951 150C49.0322 150 46.8951 149.624 44.8836 148.872C42.8722 148.12 41.0808 147.024 39.5093 145.582C37.9379 144.141 36.6965 142.371 35.7851 140.272C34.9051 138.173 34.4651 135.776 34.4651 133.082C34.4651 130.669 34.8736 128.445 35.6908 126.408C36.5393 124.341 37.7179 122.57 39.2265 121.098C40.7665 119.594 42.5579 118.435 44.6008 117.62C46.6436 116.774 48.8751 116.351 51.2951 116.351C52.8036 116.351 54.2651 116.539 55.6793 116.915C57.1251 117.291 58.4608 117.824 59.6865 118.513Z" fill="#2B3A36"/>
<path d="M76.3629 150C74.1001 150 72.0886 149.687 70.3286 149.06C68.5686 148.433 66.8872 147.4 65.2843 145.958C64.9386 145.708 64.6715 145.41 64.4829 145.066C64.3258 144.69 64.2472 144.314 64.2472 143.938C64.2472 143.342 64.4672 142.81 64.9072 142.34C65.3472 141.87 65.8972 141.635 66.5572 141.635C67.06 141.635 67.5315 141.807 67.9715 142.152C69.1658 143.248 70.4072 144.079 71.6958 144.643C73.0158 145.206 74.5558 145.488 76.3158 145.488C77.5729 145.488 78.72 145.285 79.7572 144.878C80.8258 144.47 81.6743 143.922 82.3029 143.233C82.9315 142.543 83.2458 141.745 83.2458 140.836C83.2458 139.708 82.9158 138.784 82.2558 138.063C81.6272 137.311 80.7 136.7 79.4743 136.23C78.28 135.729 76.8343 135.306 75.1372 134.962C73.5658 134.68 72.1515 134.288 70.8943 133.787C69.6686 133.285 68.6158 132.659 67.7358 131.907C66.8558 131.124 66.1801 130.199 65.7086 129.134C65.2372 128.069 65.0015 126.831 65.0015 125.422C65.0015 123.51 65.5043 121.866 66.51 120.487C67.5158 119.109 68.8829 118.043 70.6115 117.291C72.34 116.539 74.2886 116.163 76.4572 116.163C78.4372 116.163 80.2915 116.477 82.02 117.103C83.7486 117.699 85.1472 118.513 86.2158 119.547C86.9701 120.205 87.3472 120.91 87.3472 121.662C87.3472 122.226 87.1115 122.758 86.64 123.26C86.2 123.73 85.6815 123.965 85.0843 123.965C84.6443 123.965 84.2672 123.839 83.9529 123.589C83.45 123.056 82.7743 122.586 81.9258 122.179C81.0772 121.74 80.1658 121.38 79.1915 121.098C78.2486 120.816 77.3372 120.675 76.4572 120.675C75.0429 120.675 73.8329 120.879 72.8272 121.286C71.8215 121.662 71.0515 122.195 70.5172 122.884C69.9829 123.542 69.7158 124.325 69.7158 125.234C69.7158 126.299 70.0143 127.176 70.6115 127.865C71.24 128.555 72.1043 129.118 73.2043 129.557C74.3043 129.964 75.5615 130.34 76.9758 130.685C78.7043 131.061 80.2443 131.484 81.5958 131.954C82.9786 132.424 84.1415 133.035 85.0843 133.787C86.0272 134.507 86.7501 135.416 87.2529 136.512C87.7558 137.609 88.0072 138.972 88.0072 140.601C88.0072 142.481 87.4729 144.126 86.4043 145.535C85.3358 146.945 83.9215 148.042 82.1615 148.825C80.4329 149.608 78.5001 150 76.3629 150Z" fill="#2B3A36"/>
<path d="M103.94 150C101.677 150 99.6653 149.687 97.9053 149.06C96.1453 148.433 94.4639 147.4 92.8611 145.958C92.5153 145.708 92.2482 145.41 92.0596 145.066C91.9025 144.69 91.8239 144.314 91.8239 143.938C91.8239 143.342 92.0439 142.81 92.4839 142.34C92.9239 141.87 93.4739 141.635 94.1339 141.635C94.6368 141.635 95.1082 141.807 95.5482 142.152C96.7425 143.248 97.9839 144.079 99.2725 144.643C100.592 145.206 102.132 145.488 103.892 145.488C105.15 145.488 106.297 145.285 107.334 144.878C108.402 144.47 109.251 143.922 109.88 143.233C110.508 142.543 110.822 141.745 110.822 140.836C110.822 139.708 110.492 138.784 109.832 138.063C109.204 137.311 108.277 136.7 107.051 136.23C105.857 135.729 104.411 135.306 102.714 134.962C101.142 134.68 99.7282 134.288 98.4711 133.787C97.2453 133.285 96.1925 132.659 95.3125 131.907C94.4325 131.124 93.7568 130.199 93.2854 129.134C92.8139 128.069 92.5782 126.831 92.5782 125.422C92.5782 123.51 93.0811 121.866 94.0868 120.487C95.0925 119.109 96.4596 118.043 98.1882 117.291C99.9168 116.539 101.865 116.163 104.034 116.163C106.014 116.163 107.868 116.477 109.597 117.103C111.325 117.699 112.724 118.513 113.792 119.547C114.547 120.205 114.924 120.91 114.924 121.662C114.924 122.226 114.688 122.758 114.217 123.26C113.777 123.73 113.258 123.965 112.661 123.965C112.221 123.965 111.844 123.839 111.53 123.589C111.027 123.056 110.351 122.586 109.502 122.179C108.654 121.74 107.742 121.38 106.768 121.098C105.825 120.816 104.914 120.675 104.034 120.675C102.62 120.675 101.41 120.879 100.404 121.286C99.3982 121.662 98.6282 122.195 98.0939 122.884C97.5596 123.542 97.2925 124.325 97.2925 125.234C97.2925 126.299 97.5911 127.176 98.1882 127.865C98.8168 128.555 99.6811 129.118 100.781 129.557C101.881 129.964 103.138 130.34 104.552 130.685C106.281 131.061 107.821 131.484 109.172 131.954C110.555 132.424 111.718 133.035 112.661 133.787C113.604 134.507 114.327 135.416 114.83 136.512C115.332 137.609 115.584 138.972 115.584 140.601C115.584 142.481 115.05 144.126 113.981 145.535C112.912 146.945 111.498 148.042 109.738 148.825C108.01 149.608 106.077 150 103.94 150Z" fill="#2B3A36"/>
</svg>
