<svg width="152" height="150" viewBox="0 0 152 150" fill="none" xmlns="http://www.w3.org/2000/svg">
<path d="M55.8702 143.341C54.2707 144.851 52.1867 145.696 50.0196 145.714C44.9214 145.714 40.826 141.096 40.826 135.357C40.826 129.618 44.9214 125 50.0196 125C52.1867 125.018 54.2707 125.864 55.8702 127.374M70.198 144.286C72.1386 145.671 74.4935 146.422 76.9142 146.429C80.9439 146.429 84.5259 145.143 84.5259 140.857C84.5259 134 70.198 137 70.198 130.571C70.198 127.143 72.8845 125 76.9142 125C79.3349 125.006 81.6897 125.757 83.6304 127.143M98.1374 144.286C99.9806 145.671 102.218 146.422 104.518 146.429C108.346 146.429 111.749 145.143 111.749 140.857C111.749 134 98.1374 137 98.1374 130.571C98.1374 127.143 100.689 125 104.518 125C106.818 125.006 109.054 125.757 110.898 127.143M4.28992 96.4286V10.7143C4.28992 8.81986 5.04469 7.00307 6.38818 5.66352C7.73168 4.32398 9.55383 3.57143 11.4538 3.57143H97.421M97.421 3.57143L147.568 53.5714M97.421 3.57143V53.5714L147.568 53.5714M147.568 53.5714V96.4286" stroke="#2B3A36" stroke-width="5" stroke-linecap="round" stroke-linejoin="round"/>
</svg>
