<svg width="150" height="150" viewBox="0 0 150 150" fill="none" xmlns="http://www.w3.org/2000/svg">
<path fill-rule="evenodd" clip-rule="evenodd" d="M9.77612 5.13001C8.52239 5.13001 7.32155 5.63371 6.4373 6.5279C5.5533 7.42184 5.05805 8.63263 5.05805 9.89359V97.8366C5.05805 99.2532 3.92577 100.402 2.52902 100.402C1.13228 100.402 0 99.2532 0 97.8366V9.89359C0 7.26717 1.03181 4.74991 2.866 2.89509C4.69994 1.04053 7.1857 0 9.77612 0H96.7413C97.4107 0 98.0529 0.269205 98.5269 0.748603L149.257 52.0487C149.733 52.5299 150 53.1835 150 53.8651V97.8366C150 99.2532 148.868 100.402 147.471 100.402C146.074 100.402 144.942 99.2532 144.942 97.8366V56.4301L96.7413 56.4301C96.0706 56.4301 95.4273 56.1599 94.953 55.6788C94.4787 55.1978 94.2123 54.5454 94.2123 53.8651V5.13001H9.77612ZM99.2703 8.7446L141.353 51.3001H99.2703V8.7446Z" fill="#2B3A36"/>
<path d="M17.4406 117C18.0692 117 18.6192 117.236 19.0906 117.707C19.5935 118.147 19.8449 118.713 19.8449 119.404V147.596C19.8135 148.287 19.5463 148.869 19.0435 149.34C18.572 149.78 18.0063 150 17.3463 150C16.6235 150 16.0263 149.78 15.5549 149.34C15.1149 148.869 14.8949 148.287 14.8949 147.596V119.404C14.8949 118.713 15.1306 118.147 15.602 117.707C16.0735 117.236 16.6863 117 17.4406 117ZM38.702 117C39.4563 117 40.0535 117.236 40.4935 117.707C40.9335 118.147 41.1535 118.713 41.1535 119.404V147.596C41.1535 148.287 40.9177 148.869 40.4463 149.34C40.0063 149.78 39.4092 150 38.6549 150C37.9949 150 37.4292 149.78 36.9577 149.34C36.4863 148.869 36.2506 148.287 36.2506 147.596V119.404C36.2506 118.713 36.4863 118.147 36.9577 117.707C37.4606 117.236 38.042 117 38.702 117ZM17.252 131.049H38.7492L38.702 135.574H17.2049L17.252 131.049Z" fill="#2B3A36"/>
<path d="M59.5274 150C58.7731 150 58.1602 149.78 57.6888 149.34C57.2488 148.869 57.0288 148.287 57.0288 147.596V119.357H62.0731V147.596C62.0731 148.287 61.8217 148.869 61.3188 149.34C60.8474 149.78 60.2502 150 59.5274 150ZM48.826 121.526C48.166 121.526 47.6002 121.321 47.1288 120.913C46.6574 120.473 46.4217 119.907 46.4217 119.216C46.4217 118.556 46.6574 118.021 47.1288 117.613C47.6002 117.204 48.166 117 48.826 117H70.276C70.936 117 71.486 117.22 71.926 117.66C72.3974 118.069 72.6331 118.603 72.6331 119.263C72.6331 119.954 72.3974 120.504 71.926 120.913C71.486 121.321 70.936 121.526 70.276 121.526H48.826Z" fill="#2B3A36"/>
<path d="M80.4183 116.953C80.7954 116.953 81.1883 117.047 81.5969 117.236C82.0054 117.424 82.3197 117.691 82.5397 118.037L94.514 136.281L92.4869 136.187L104.697 118.037C105.2 117.314 105.844 116.953 106.63 116.953C107.258 116.953 107.808 117.189 108.28 117.66C108.783 118.1 109.034 118.666 109.034 119.357V147.596C109.034 148.287 108.814 148.869 108.374 149.34C107.934 149.78 107.353 150 106.63 150C105.875 150 105.263 149.78 104.791 149.34C104.351 148.869 104.131 148.287 104.131 147.596V123.694L105.64 124.024L95.2683 139.817C95.0483 140.1 94.7654 140.351 94.4197 140.571C94.074 140.76 93.7126 140.839 93.3354 140.807C92.9897 140.839 92.6283 140.76 92.2512 140.571C91.9054 140.351 91.6226 140.1 91.4026 139.817L81.4083 124.26L82.5397 122.374V147.596C82.5397 148.287 82.3197 148.869 81.8797 149.34C81.4712 149.78 80.9212 150 80.2297 150C79.5697 150 79.0197 149.78 78.5797 149.34C78.1712 148.869 77.9669 148.287 77.9669 147.596V119.357C77.9669 118.697 78.2026 118.131 78.674 117.66C79.1769 117.189 79.7583 116.953 80.4183 116.953Z" fill="#2B3A36"/>
<path d="M134.975 145.38C135.635 145.38 136.185 145.6 136.625 146.04C137.097 146.48 137.332 147.03 137.332 147.69C137.332 148.35 137.097 148.9 136.625 149.34C136.185 149.78 135.635 150 134.975 150H119.135C118.444 150 117.862 149.78 117.391 149.34C116.951 148.869 116.731 148.287 116.731 147.596V119.404C116.731 118.713 116.967 118.147 117.438 117.707C117.909 117.236 118.522 117 119.277 117C119.905 117 120.455 117.236 120.927 117.707C121.429 118.147 121.681 118.713 121.681 119.404V146.181L120.691 145.38H134.975Z" fill="#2B3A36"/>
</svg>
