<svg width="150" height="150" viewBox="0 0 150 150" fill="none" xmlns="http://www.w3.org/2000/svg">
<path fill-rule="evenodd" clip-rule="evenodd" d="M9.77612 5.10949C8.52239 5.10949 7.32155 5.61118 6.4373 6.50179C5.5533 7.39216 5.05805 8.5981 5.05805 9.85401V97.4453C5.05805 98.8562 3.92577 100 2.52902 100C1.13228 100 0 98.8562 0 97.4453V9.85401C0 7.2381 1.03181 4.73091 2.866 2.88351C4.69994 1.03637 7.1857 0 9.77612 0H96.7413C97.4107 0 98.0529 0.268128 98.5269 0.745609L149.257 51.8405C149.733 52.3198 150 52.9708 150 53.6496V97.4453C150 98.8562 148.868 100 147.471 100C146.074 100 144.942 98.8562 144.942 97.4453V56.2044L96.7413 56.2044C96.0706 56.2044 95.4273 55.9352 94.953 55.4561C94.4787 54.977 94.2123 54.3272 94.2123 53.6496V5.10949H9.77612ZM99.2703 8.70962L141.353 51.0949L99.2703 51.0949V8.70962Z" fill="#2B3A36"/>
<path d="M41.3422 149.04C41.6889 149.253 42.2355 149.36 42.9822 149.36C43.7289 149.36 44.2755 149.253 44.6222 149.04C44.9689 148.827 45.1822 148.533 45.2622 148.16C45.3689 147.787 45.4222 147.387 45.4222 146.96V123.88C45.4222 123.427 45.3689 123.013 45.2622 122.64C45.1822 122.267 44.9689 121.973 44.6222 121.76C44.3022 121.547 43.7689 121.44 43.0222 121.44C42.2489 121.44 41.6889 121.547 41.3422 121.76C41.0222 121.973 40.8089 122.267 40.7022 122.64C40.6222 123.013 40.5822 123.413 40.5822 123.84V133H27.9022V123.88C27.9022 123.427 27.8622 123.013 27.7822 122.64C27.7022 122.267 27.4889 121.973 27.1422 121.76C26.8222 121.547 26.2755 121.44 25.5022 121.44C24.7555 121.44 24.2089 121.547 23.8622 121.76C23.5155 121.973 23.2889 122.267 23.1822 122.64C23.1022 123.013 23.0622 123.413 23.0622 123.84V146.92C23.0622 147.347 23.1022 147.76 23.1822 148.16C23.2889 148.533 23.5022 148.827 23.8222 149.04C24.1689 149.253 24.7155 149.36 25.4622 149.36C26.2355 149.36 26.7822 149.253 27.1022 149.04C27.4489 148.827 27.6622 148.533 27.7422 148.16C27.8489 147.787 27.9022 147.387 27.9022 146.96V137.32H40.5822V146.92C40.5822 147.347 40.6222 147.76 40.7022 148.16C40.7822 148.533 40.9955 148.827 41.3422 149.04Z" fill="#2B3A36"/>
<path d="M71.7344 121.52C71.441 121.44 71.0944 121.4 70.6944 121.4H51.0544C50.681 121.4 50.321 121.44 49.9744 121.52C49.6544 121.6 49.401 121.8 49.2144 122.12C49.0277 122.413 48.9344 122.893 48.9344 123.56C48.9344 124.227 49.0277 124.707 49.2144 125C49.4277 125.293 49.6944 125.48 50.0144 125.56C50.3344 125.64 50.681 125.68 51.0544 125.68H58.4944V146.96C58.4944 147.413 58.5344 147.827 58.6144 148.2C58.6944 148.547 58.9077 148.827 59.2544 149.04C59.601 149.28 60.1344 149.4 60.8544 149.4C61.6277 149.4 62.1744 149.293 62.4944 149.08C62.841 148.867 63.0544 148.587 63.1344 148.24C63.241 147.867 63.2944 147.453 63.2944 147V125.68H70.6544C71.0544 125.68 71.4144 125.653 71.7344 125.6C72.0544 125.52 72.3077 125.333 72.4944 125.04C72.681 124.72 72.7744 124.227 72.7744 123.56C72.7744 122.893 72.681 122.413 72.4944 122.12C72.3077 121.8 72.0544 121.6 71.7344 121.52Z" fill="#2B3A36"/>
<path d="M77.0244 149.04C77.371 149.253 77.891 149.36 78.5844 149.36C79.331 149.36 79.8777 149.253 80.2244 149.04C80.571 148.827 80.7844 148.533 80.8644 148.16C80.971 147.787 81.0244 147.4 81.0244 147V129.76L88.2644 140.24L88.6644 140.72C88.8244 140.88 89.0377 141.027 89.3044 141.16C89.571 141.293 89.9177 141.36 90.3444 141.36C90.7977 141.36 91.1577 141.293 91.4244 141.16C91.691 141.027 91.9044 140.88 92.0644 140.72C92.2244 140.533 92.3444 140.387 92.4244 140.28L99.7044 129.76V146.92C99.7044 147.347 99.7444 147.747 99.8244 148.12C99.931 148.493 100.158 148.787 100.504 149C100.851 149.24 101.384 149.36 102.104 149.36C102.851 149.36 103.398 149.253 103.744 149.04C104.091 148.827 104.304 148.533 104.384 148.16C104.491 147.787 104.544 147.4 104.544 147V123.92C104.544 123.467 104.491 123.053 104.384 122.68C104.304 122.307 104.091 122.013 103.744 121.8C103.398 121.56 102.864 121.44 102.144 121.44C101.664 121.44 101.278 121.467 100.984 121.52C100.691 121.573 100.451 121.653 100.264 121.76C100.078 121.867 99.891 122.027 99.7044 122.24L90.3646 135.277L81.0644 122.28C80.9044 122.093 80.7444 121.947 80.5844 121.84C80.4244 121.707 80.1977 121.613 79.9044 121.56C79.6377 121.48 79.2244 121.44 78.6644 121.44C77.9177 121.44 77.371 121.56 77.0244 121.8C76.6777 122.013 76.451 122.307 76.3444 122.68C76.2644 123.027 76.2244 123.413 76.2244 123.84V146.92C76.2244 147.373 76.2644 147.787 76.3444 148.16C76.451 148.533 76.6777 148.827 77.0244 149.04Z" fill="#2B3A36"/>
<path d="M109.997 149.04C110.344 149.28 110.904 149.4 111.677 149.4H126.237C126.637 149.4 126.997 149.347 127.317 149.24C127.637 149.16 127.89 148.973 128.077 148.68C128.264 148.36 128.357 147.867 128.357 147.2C128.357 146.533 128.264 146.053 128.077 145.76C127.89 145.44 127.637 145.253 127.317 145.2C126.997 145.12 126.637 145.08 126.237 145.08H114.037V123.88C114.037 123.427 113.984 123.013 113.877 122.64C113.797 122.267 113.584 121.973 113.237 121.76C112.917 121.547 112.384 121.44 111.637 121.44C110.864 121.44 110.304 121.547 109.957 121.76C109.637 121.973 109.424 122.267 109.317 122.64C109.237 123.013 109.197 123.427 109.197 123.88V146.96C109.197 147.387 109.237 147.787 109.317 148.16C109.424 148.533 109.65 148.827 109.997 149.04Z" fill="#2B3A36"/>
</svg>
