<svg width="40" height="40" viewBox="0 0 40 40" fill="none" xmlns="http://www.w3.org/2000/svg">
<path d="M31.0648 15.31C30.2248 16.1344 29.0504 16.5467 27.5415 16.5467H25.6515V7.02667H27.5415C29.0504 7.02667 30.2248 7.44667 31.0648 8.28667C31.9048 9.12667 32.3248 10.3011 32.3248 11.81C32.3248 13.3189 31.9048 14.4856 31.0648 15.31Z" fill="#2B3A36"/>
<path fill-rule="evenodd" clip-rule="evenodd" d="M4.66667 0C2.08934 0 0 2.08934 0 4.66667V35.3333C0 37.9107 2.08934 40 4.66667 40H35.3333C37.9107 40 40 37.9107 40 35.3333V4.66667C40 2.08934 37.9107 0 35.3333 0H4.66667ZM18.77 20V3.62H14.78V20H18.77ZM32.3248 4.64667C31.0337 3.96222 29.5248 3.62 27.7982 3.62H21.6615V20H27.7982C29.5093 20 31.0104 19.6578 32.3015 18.9733C33.6082 18.2889 34.6115 17.3244 35.3115 16.08C36.0271 14.8356 36.3848 13.4122 36.3848 11.81C36.3848 10.1922 36.0271 8.76889 35.3115 7.54C34.6115 6.29556 33.616 5.33111 32.3248 4.64667Z" fill="#2B3A36"/>
</svg>
