<svg width="99" height="99" viewBox="0 0 99 99" fill="none" xmlns="http://www.w3.org/2000/svg">
<path d="M49.5 24C35.5547 24 24 35.5781 24 50C24 64.4219 35.3555 76 49.5 76C63.6445 76 75 64.2188 75 50C75 35.7812 63.4453 24 49.5 24ZM49.5 66.6563C40.5352 66.6563 33.1641 59.1406 33.1641 50C33.1641 40.8594 40.5352 33.3437 49.5 33.3437C58.4648 33.3437 65.8359 40.8594 65.8359 50C65.8359 59.1406 58.4648 66.6563 49.5 66.6563Z" fill="black"/>
<path d="M76 30C79.3137 30 82 27.3137 82 24C82 20.6863 79.3137 18 76 18C72.6863 18 70 20.6863 70 24C70 27.3137 72.6863 30 76 30Z" fill="black"/>
<path d="M91.0161 8.18347C85.8266 2.79435 78.4415 0 70.0585 0H28.9415C11.5766 0 0 11.5766 0 28.9415V69.8589C0 78.4415 2.79435 85.8266 8.38306 91.2157C13.7722 96.4052 20.9577 99 29.1411 99H69.8589C78.4415 99 85.627 96.2056 90.8165 91.2157C96.2056 86.0262 99 78.6411 99 70.0585V28.9415C99 20.5585 96.2056 13.373 91.0161 8.18347ZM90.2177 70.0585C90.2177 76.246 88.0222 81.2359 84.4294 84.629C80.8367 88.0222 75.8468 89.8185 69.8589 89.8185H29.1411C23.1532 89.8185 18.1633 88.0222 14.5706 84.629C10.9778 81.0363 9.18145 76.0464 9.18145 69.8589V28.9415C9.18145 22.9536 10.9778 17.9637 14.5706 14.371C17.9637 10.9778 23.1532 9.18145 29.1411 9.18145H70.2581C76.246 9.18145 81.2359 10.9778 84.8286 14.5706C88.2218 18.1633 90.2177 23.1532 90.2177 28.9415V70.0585Z" fill="black"/>
</svg>
