<svg width="150" height="150" viewBox="0 0 150 150" fill="none" xmlns="http://www.w3.org/2000/svg">
<path fill-rule="evenodd" clip-rule="evenodd" d="M9.77612 5.10949C8.52239 5.10949 7.32155 5.61118 6.4373 6.50179C5.5533 7.39216 5.05805 8.5981 5.05805 9.85401V97.4453C5.05805 98.8562 3.92577 100 2.52902 100C1.13228 100 0 98.8562 0 97.4453V9.85401C0 7.2381 1.03181 4.73091 2.866 2.88351C4.69994 1.03637 7.1857 0 9.77612 0H96.7413C97.4107 0 98.0529 0.268128 98.5269 0.745609L149.257 51.8405C149.733 52.3198 150 52.9708 150 53.6496V97.4453C150 98.8562 148.868 100 147.471 100C146.074 100 144.942 98.8562 144.942 97.4453V56.2044L96.7413 56.2044C96.0706 56.2044 95.4273 55.9352 94.953 55.4561C94.4787 54.977 94.2123 54.3272 94.2123 53.6496V5.10949H9.77612ZM99.2703 8.70962L141.353 51.0949L99.2703 51.0949V8.70962Z" fill="#2B3A36"/>
<path d="M60.2831 149.24C61.0831 149.48 61.9365 149.6 62.8431 149.6C64.2831 149.6 65.5765 149.36 66.7231 148.88C67.8965 148.373 68.8831 147.68 69.6831 146.8C70.5098 145.893 71.1365 144.84 71.5631 143.64C72.0165 142.44 72.2431 141.133 72.2431 139.72V123.92C72.2431 123.467 72.1898 123.053 72.0831 122.68C72.0031 122.307 71.7898 122.013 71.4431 121.8C71.1231 121.56 70.6031 121.44 69.8831 121.44C69.1098 121.44 68.5498 121.56 68.2031 121.8C67.8565 122.04 67.6298 122.373 67.5231 122.8C67.4165 123.227 67.3631 123.68 67.3631 124.16V139.44C67.3631 140.213 67.2698 140.933 67.0831 141.6C66.9231 142.24 66.6565 142.8 66.2831 143.28C65.9365 143.76 65.4831 144.133 64.9231 144.4C64.3898 144.64 63.7498 144.76 63.0031 144.76C62.4431 144.76 61.9231 144.68 61.4431 144.52C60.9898 144.36 60.5898 144.173 60.2431 143.96C59.8965 143.72 59.6165 143.52 59.4031 143.36C58.9765 142.96 58.6031 142.627 58.2831 142.36C57.9898 142.067 57.6431 141.92 57.2431 141.92C56.9498 141.92 56.6698 142 56.4031 142.16C56.1365 142.293 55.8298 142.547 55.4831 142.92C55.1898 143.213 54.9498 143.52 54.7631 143.84C54.6031 144.133 54.5231 144.427 54.5231 144.72C54.5231 145.04 54.6298 145.347 54.8431 145.64C55.0831 145.933 55.3498 146.24 55.6431 146.56C55.8565 146.773 56.1765 147.053 56.6031 147.4C57.0565 147.72 57.5898 148.053 58.2031 148.4C58.8165 148.747 59.5098 149.027 60.2831 149.24Z" fill="#2B3A36"/>
<path d="M82.3647 149.32C83.3514 149.613 84.4447 149.76 85.6447 149.76C86.8447 149.76 88.0314 149.587 89.2047 149.24C90.378 148.92 91.4447 148.413 92.4047 147.72C93.3647 147.027 94.1247 146.133 94.6847 145.04C95.2447 143.947 95.5247 142.667 95.5247 141.2C95.5247 139.92 95.3247 138.84 94.9247 137.96C94.5247 137.053 93.9914 136.307 93.3247 135.72C92.658 135.107 91.898 134.6 91.0447 134.2C90.1914 133.8 89.3247 133.453 88.4447 133.16C87.5914 132.893 86.7514 132.64 85.9247 132.4C85.098 132.16 84.3514 131.907 83.6847 131.64C83.018 131.347 82.4847 130.987 82.0847 130.56C81.7114 130.107 81.5247 129.533 81.5247 128.84C81.5247 128.333 81.618 127.88 81.8047 127.48C82.018 127.08 82.298 126.747 82.6447 126.48C82.9914 126.187 83.4047 125.973 83.8847 125.84C84.3914 125.68 84.9114 125.6 85.4447 125.6C86.1914 125.6 86.818 125.667 87.3247 125.8C87.858 125.933 88.338 126.147 88.7647 126.44C89.1914 126.707 89.618 127.067 90.0447 127.52C90.6847 128 91.258 128.213 91.7647 128.16C92.298 128.08 92.8447 127.68 93.4047 126.96C93.9647 126.267 94.2047 125.72 94.1247 125.32C94.0714 124.893 93.738 124.373 93.1247 123.76C92.938 123.547 92.6314 123.293 92.2047 123C91.8047 122.68 91.2847 122.373 90.6447 122.08C90.0314 121.76 89.2847 121.507 88.4047 121.32C87.5514 121.107 86.578 121 85.4847 121C83.778 121 82.258 121.347 80.9247 122.04C79.5914 122.707 78.5514 123.627 77.8047 124.8C77.058 125.947 76.6847 127.28 76.6847 128.8C76.6847 129.76 76.8047 130.6 77.0447 131.32C77.2847 132.04 77.6047 132.68 78.0047 133.24C78.4314 133.773 78.9114 134.24 79.4447 134.64C80.0047 135.04 80.6047 135.4 81.2447 135.72C81.8847 136.013 82.5247 136.267 83.1647 136.48C84.0714 136.827 84.9647 137.147 85.8447 137.44C86.7514 137.707 87.5647 138.013 88.2847 138.36C89.0047 138.68 89.578 139.08 90.0047 139.56C90.458 140.013 90.6847 140.6 90.6847 141.32C90.6847 142.2 90.458 142.92 90.0047 143.48C89.578 144.04 88.978 144.467 88.2047 144.76C87.4314 145.027 86.5247 145.16 85.4847 145.16C84.6847 145.16 83.8847 144.987 83.0847 144.64C82.2847 144.267 81.5647 143.653 80.9247 142.8C80.5514 142.32 80.1647 141.947 79.7647 141.68C79.3914 141.413 78.9914 141.293 78.5647 141.32C78.1647 141.32 77.7247 141.533 77.2447 141.96C76.7647 142.36 76.4314 142.747 76.2447 143.12C76.0847 143.467 76.058 143.827 76.1647 144.2C76.2714 144.573 76.498 145 76.8447 145.48C77.0847 145.88 77.458 146.32 77.9647 146.8C78.4714 147.28 79.0847 147.747 79.8047 148.2C80.5514 148.653 81.4047 149.027 82.3647 149.32Z" fill="#2B3A36"/>
</svg>
