<svg width="151" height="150" viewBox="0 0 151 150" fill="none" xmlns="http://www.w3.org/2000/svg">
<path fill-rule="evenodd" clip-rule="evenodd" d="M10.3062 5.10164C9.05242 5.10164 7.85158 5.60256 6.96733 6.49181C6.08333 7.38081 5.58808 8.5849 5.58808 9.83888V97.2956C5.58808 98.7044 4.45579 99.8464 3.05905 99.8464C1.66231 99.8464 0.530029 98.7044 0.530029 97.2956V9.83888C0.530029 7.22699 1.56184 4.72365 3.39603 2.87908C5.22997 1.03478 7.71573 0 10.3062 0H97.2713C97.9408 0 98.5829 0.267716 99.057 0.744464L149.787 51.7609C150.263 52.2395 150.53 52.8894 150.53 53.5673V97.2956C150.53 98.7044 149.398 99.8464 148.001 99.8464C146.604 99.8464 145.472 98.7044 145.472 97.2956V56.1181L97.2713 56.1181C96.6006 56.1181 95.9573 55.8493 95.483 55.371C95.0087 54.8926 94.7423 54.2438 94.7423 53.5673V5.10164H10.3062ZM99.8003 8.69625L141.883 51.0164L99.8003 51.0164V8.69625Z" fill="#2B3A36"/>
<path d="M60.1248 150C58.2705 150 56.5734 149.577 55.0334 148.731C53.4934 147.885 52.252 146.71 51.3091 145.206C51.0262 144.737 50.8848 144.298 50.8848 143.891C50.8848 143.233 51.1362 142.684 51.6391 142.246C52.142 141.807 52.6448 141.588 53.1477 141.588C53.5877 141.588 53.9805 141.713 54.3262 141.964C54.7034 142.183 55.0491 142.465 55.3634 142.81C55.992 143.624 56.6991 144.251 57.4848 144.69C58.2705 145.097 59.1505 145.3 60.1248 145.3C61.2562 145.3 62.2777 145.05 63.1891 144.549C64.1005 144.016 64.8234 143.311 65.3577 142.434C65.892 141.525 66.1591 140.538 66.1591 139.473V119.03C66.1591 118.341 66.4105 117.777 66.9134 117.338C67.4162 116.868 67.9977 116.633 68.6577 116.633C69.3805 116.633 69.962 116.868 70.402 117.338C70.842 117.777 71.062 118.341 71.062 119.03V139.473C71.062 141.384 70.5748 143.139 69.6005 144.737C68.6577 146.334 67.3534 147.619 65.6877 148.59C64.0534 149.53 62.1991 150 60.1248 150Z" fill="#2B3A36"/>
<path d="M88.8628 150C86.5999 150 84.5885 149.687 82.8285 149.06C81.0685 148.433 79.3871 147.4 77.7842 145.958C77.4385 145.708 77.1714 145.41 76.9828 145.066C76.8257 144.69 76.7471 144.314 76.7471 143.938C76.7471 143.342 76.9671 142.81 77.4071 142.34C77.8471 141.87 78.3971 141.635 79.0571 141.635C79.5599 141.635 80.0314 141.807 80.4714 142.152C81.6657 143.248 82.9071 144.079 84.1957 144.643C85.5157 145.206 87.0557 145.488 88.8157 145.488C90.0728 145.488 91.2199 145.285 92.2571 144.878C93.3257 144.47 94.1742 143.922 94.8028 143.233C95.4314 142.543 95.7457 141.745 95.7457 140.836C95.7457 139.708 95.4157 138.784 94.7557 138.063C94.1271 137.311 93.1999 136.7 91.9742 136.23C90.7799 135.729 89.3342 135.306 87.6371 134.962C86.0657 134.68 84.6514 134.288 83.3942 133.787C82.1685 133.285 81.1157 132.659 80.2357 131.907C79.3557 131.124 78.6799 130.199 78.2085 129.134C77.7371 128.069 77.5014 126.831 77.5014 125.422C77.5014 123.51 78.0042 121.866 79.0099 120.487C80.0157 119.109 81.3828 118.043 83.1114 117.291C84.8399 116.539 86.7885 116.163 88.9571 116.163C90.9371 116.163 92.7914 116.477 94.5199 117.103C96.2485 117.699 97.6471 118.513 98.7157 119.547C99.4699 120.205 99.8471 120.91 99.8471 121.662C99.8471 122.226 99.6114 122.758 99.1399 123.26C98.6999 123.73 98.1814 123.965 97.5842 123.965C97.1442 123.965 96.7671 123.839 96.4528 123.589C95.9499 123.056 95.2742 122.586 94.4257 122.179C93.5771 121.74 92.6657 121.38 91.6914 121.098C90.7485 120.816 89.8371 120.675 88.9571 120.675C87.5428 120.675 86.3328 120.879 85.3271 121.286C84.3214 121.662 83.5514 122.195 83.0171 122.884C82.4828 123.542 82.2157 124.325 82.2157 125.234C82.2157 126.299 82.5142 127.176 83.1114 127.865C83.7399 128.555 84.6042 129.118 85.7042 129.557C86.8042 129.964 88.0614 130.34 89.4757 130.685C91.2042 131.061 92.7442 131.484 94.0957 131.954C95.4785 132.424 96.6414 133.035 97.5842 133.787C98.5271 134.507 99.2499 135.416 99.7528 136.512C100.256 137.609 100.507 138.972 100.507 140.601C100.507 142.481 99.9728 144.126 98.9042 145.535C97.8357 146.945 96.4214 148.042 94.6614 148.825C92.9328 149.608 90.9999 150 88.8628 150Z" fill="#2B3A36"/>
</svg>
