<svg width="100" height="100" viewBox="0 0 100 100" fill="none" xmlns="http://www.w3.org/2000/svg">
<path fill-rule="evenodd" clip-rule="evenodd" d="M30.9831 82V39.225H18V82H30.9831ZM24.9763 32.75C29.3041 32.75 32 29.475 32 25.375C31.9291 21.2 29.3041 18 25.0473 18C20.7905 18 18.0236 21.2 18.0236 25.375C18.0236 29.475 20.7196 32.75 24.8818 32.75H24.9763Z" fill="black"/>
<path fill-rule="evenodd" clip-rule="evenodd" d="M65.7726 37C58.3244 37 55.125 41.2171 53.0774 44.1486V38.0286H39V82H53.0774V56.9543C53.0774 55.6686 53.1798 54.3829 53.5637 53.4829C54.5875 50.9114 56.8911 48.2629 60.7816 48.2629C65.875 48.2629 67.9226 52.1971 67.9226 57.9571V82H82V56.3114C82 43.12 75.0381 37 65.7726 37Z" fill="black"/>
<path d="M92.003 0H8.54388C3.98541 0 0 3.28211 0 7.78849V91.4301C0 95.9625 3.98541 100 8.54388 100H91.9769C96.5615 100 99.9999 95.9365 99.9999 91.4301V7.78849C100.026 3.28211 96.5615 0 92.003 0ZM91.1694 91.6906C90.8829 91.6906 9.61186 91.6906 9.14299 91.6906C8.67412 91.6906 8.33549 91.3259 8.33549 90.883C8.33549 90.4402 8.33549 9.14301 8.33549 8.85647C8.33549 8.56994 8.59598 8.3355 8.85646 8.3355C9.11694 8.3355 90.909 8.3355 91.1694 8.3355C91.4299 8.3355 91.6904 8.59599 91.6904 8.85647C91.6904 14.9258 91.6904 90.883 91.6904 91.1696C91.6904 91.404 91.456 91.6906 91.1694 91.6906Z" fill="black"/>
</svg>
