<svg width="40" height="40" viewBox="0 0 40 40" fill="none" xmlns="http://www.w3.org/2000/svg">
<path d="M19.9993 23.9995C21.0993 23.9995 22.0408 23.6079 22.824 22.8247C23.6072 22.0416 23.9988 21.1 23.9988 20C23.9988 18.9 23.6072 17.9584 22.824 17.1753C22.0408 16.3921 21.0993 16.0005 19.9993 16.0005C18.8993 16.0005 17.9577 16.3921 17.1745 17.1753C16.3914 17.9584 15.9998 18.9 15.9998 20C15.9998 21.1 16.3914 22.0416 17.1745 22.8247C17.9577 23.6079 18.8993 23.9995 19.9993 23.9995ZM11.999 31.9998H27.9995V30.8502C27.9995 30.0502 27.7827 29.3166 27.3491 28.6494C26.9155 27.983 26.3156 27.483 25.5492 27.1495C24.6828 26.7831 23.7912 26.4999 22.8744 26.2999C21.9576 26.0999 20.9993 25.9999 19.9993 25.9999C18.9993 25.9999 18.0409 26.0999 17.1241 26.2999C16.2074 26.4999 15.3158 26.7831 14.4494 27.1495C13.683 27.483 13.083 27.983 12.6494 28.6494C12.2158 29.3166 11.999 30.0502 11.999 30.8502V31.9998ZM32.6494 40H7.34913C6.44915 40 5.66597 39.6664 4.99958 38.9992C4.33319 38.3328 4 37.5496 4 36.6497V3.35033C4 2.45035 4.33319 1.66717 4.99958 1.00078C5.66597 0.333593 6.44915 0 7.34913 0H22.6488C23.0824 0 23.5076 0.0835985 23.9244 0.250795C24.3412 0.417192 24.6996 0.667186 24.9996 1.00078L34.999 11.0002C35.3326 11.3002 35.5826 11.6586 35.749 12.0754C35.9154 12.4921 35.9986 12.9169 35.9986 13.3497V36.6497C35.9986 37.5496 35.6654 38.3328 34.999 38.9992C34.3326 39.6664 33.5494 40 32.6494 40ZM32.6494 36.6497V13.4505L22.5492 3.35033H7.34913V36.6497H32.6494Z" fill="#2B3A36"/>
</svg>
