<svg width="151" height="150" viewBox="0 0 151 150" fill="none" xmlns="http://www.w3.org/2000/svg">
<path d="M111.144 32.5406C109.874 32.1309 108.594 31.7493 107.306 31.3959C107.519 30.5749 107.716 29.7492 107.897 28.9188C110.803 15.5714 108.903 4.81846 102.417 1.27871C96.2064 -2.11795 86.0213 1.4218 75.7467 9.8853C74.7365 10.7204 73.7469 11.5805 72.7781 12.4656C72.1322 11.8776 71.4698 11.3021 70.7908 10.7392C60.0218 1.68921 49.2281 -2.12264 42.7493 1.42884C36.5389 4.83253 34.6931 14.9404 37.309 27.5911C37.5706 28.8422 37.8646 30.0878 38.1909 31.3279C36.6631 31.7384 35.1875 32.177 33.7765 32.6415C21.1668 36.8052 13.1031 43.3335 13.1031 50.1033C13.1031 57.0984 21.758 64.1122 34.9068 68.3651C35.9733 68.7075 37.0498 69.0258 38.1362 69.3198C37.7835 70.6475 37.4713 71.99 37.1997 73.3474C34.7155 85.78 36.6532 95.6486 42.8512 99.0312C49.2529 102.524 59.992 98.935 70.4604 90.2791C71.2884 89.5942 72.1165 88.8709 72.9445 88.1093C73.9912 89.0648 75.0677 89.9922 76.174 90.8914C86.3094 99.1438 96.3182 102.477 102.506 99.0851C108.903 95.5806 110.982 84.9777 108.282 72.0784C108.075 71.0932 107.837 70.0876 107.567 69.0617C108.322 68.8506 109.061 68.6325 109.785 68.4073C123.448 64.1216 132.349 57.1922 132.349 50.1104C132.344 43.3077 124.022 36.7372 111.144 32.5406ZM79.0979 13.5212C87.8993 6.27048 96.1269 3.40866 99.878 5.45416C103.87 7.63337 105.423 16.4206 102.914 27.9453C102.748 28.6959 102.569 29.4442 102.377 30.1902C97.1246 29.062 91.7983 28.2658 86.4336 27.8069C83.362 23.6288 79.9949 19.6515 76.3553 15.9022C77.2463 15.0858 78.1588 14.2922 79.0929 13.5212H79.0979ZM48.3114 55.888C49.3895 57.8584 50.5165 59.8046 51.6924 61.7266C52.8898 63.6876 54.1376 65.6197 55.436 67.5229C51.7447 67.144 48.0765 66.5857 44.446 65.8504C45.4993 62.632 46.7961 59.2893 48.3114 55.888ZM48.3114 44.5509C46.8209 41.2223 45.5589 37.9476 44.523 34.7855C47.9264 34.0654 51.5533 33.4766 55.3342 33.0309C54.0673 34.8981 52.8484 36.7927 51.6775 38.7147C50.5066 40.6366 49.3821 42.582 48.304 44.5509H48.3114ZM51.0192 50.2206C52.5892 47.1289 54.2801 44.0966 56.0919 41.1238C57.902 38.1525 59.8289 35.2492 61.8726 32.414C65.42 32.1606 69.0568 32.0269 72.7309 32.0269C76.405 32.0269 80.0642 32.1606 83.6091 32.4163C85.6313 35.2453 87.5466 38.1384 89.355 41.0956C91.1635 44.0528 92.8768 47.071 94.4948 50.1502C92.8983 53.2529 91.1892 56.2977 89.3675 59.2846C87.5606 62.2559 85.6561 65.1678 83.6538 68.0202C80.1139 68.2548 76.4497 68.3838 72.7234 68.3838C68.9972 68.3838 65.4026 68.2736 61.9272 68.0601C59.8686 65.2155 57.926 62.2997 56.0993 59.3128C54.2726 56.3258 52.5767 53.2951 51.0117 50.2206H51.0192ZM93.7769 61.6937C94.9776 59.7264 96.1302 57.7333 97.2349 55.7144C98.7491 58.9564 100.086 62.2699 101.239 65.6416C97.5662 66.4227 93.8522 67.0217 90.1127 67.4361C91.3747 65.5455 92.5961 63.6313 93.7769 61.6937ZM97.1852 44.5533C96.0855 42.575 94.942 40.6202 93.7545 38.6889C92.5952 36.7841 91.3871 34.9028 90.1301 33.045C93.9334 33.5 97.5826 34.1053 101.003 34.8442C99.9035 38.1388 98.6292 41.3793 97.1852 44.5533ZM72.7806 19.3481C75.2612 21.9075 77.6034 24.5835 79.7984 27.3659C75.1033 27.1548 70.4049 27.1548 65.7032 27.3659C68.0209 24.4712 70.3933 21.7853 72.7806 19.3481ZM45.313 5.59725C49.3026 3.411 58.1239 6.53555 67.4222 14.3399C68.0159 14.8395 68.6146 15.3626 69.2108 15.9045C65.5525 19.6533 62.1616 23.6271 59.0605 27.7999C53.7077 28.2553 48.3919 29.0388 43.1468 30.1456C42.8437 28.9946 42.5705 27.8358 42.327 26.6692C40.0788 15.8248 41.5669 7.64979 45.313 5.59725ZM39.4975 64.6752C38.5039 64.4078 37.5226 64.1177 36.5538 63.8049C30.7408 61.9283 25.9389 59.4793 22.6424 56.8122C19.6912 54.4219 18.1957 52.0362 18.1957 50.1033C18.1957 45.9959 24.6695 40.7555 35.4657 37.2017C36.8221 36.756 38.19 36.3486 39.5696 35.9795C41.173 40.8453 43.1149 45.6058 45.3826 50.23C43.0878 54.9181 41.1219 59.7436 39.4975 64.6752ZM67.1042 86.6479C62.4762 90.4762 57.8407 93.1902 53.7542 94.5578C50.0826 95.7846 47.1588 95.8198 45.3925 94.8557C41.6315 92.8032 40.0664 84.8769 42.2003 74.2459C42.4537 72.9948 42.7435 71.7437 43.0698 70.4927C48.3674 71.5702 53.7365 72.3062 59.14 72.6953C62.2714 76.8898 65.6903 80.8861 69.3748 84.6587C68.6345 85.346 67.8768 86.0075 67.1042 86.6479ZM72.9222 81.2011C70.5076 78.7357 68.0979 76.0075 65.7479 73.0753C68.0317 73.1598 70.3569 73.202 72.7234 73.202C75.153 73.202 77.5577 73.1528 79.9276 73.0519C77.7405 75.8789 75.4024 78.5988 72.9222 81.2011ZM103.855 87.9076C103.145 91.5294 101.716 93.9455 99.9501 94.912C96.1915 96.9716 88.1552 94.2951 79.4904 87.2367C78.4967 86.4297 77.503 85.5642 76.492 84.6564C80.1047 80.8691 83.4435 76.8566 86.4858 72.6461C91.9192 72.2114 97.3143 71.4237 102.633 70.2886C102.876 71.2175 103.092 72.1277 103.279 73.019C104.474 78.7192 104.645 83.8752 103.855 87.9076ZM108.178 63.8307C107.527 64.0348 106.856 64.2318 106.175 64.4242C104.508 59.5355 102.49 54.7595 100.136 50.1291C102.402 45.5605 104.34 40.8538 105.939 36.0405C107.159 36.3759 108.344 36.7278 109.484 37.1008C120.519 40.6945 127.251 46.0147 127.251 50.1033C127.251 54.4664 119.98 60.1291 108.178 63.8307Z" fill="#2B3A36"/>
<path d="M72.7234 60.1807C74.8376 60.1872 76.9063 59.6012 78.6675 58.4968C80.4287 57.3924 81.8032 55.8193 82.6171 53.9768C83.4309 52.1343 83.6474 50.1051 83.2392 48.1463C82.8309 46.1875 81.8163 44.3872 80.3238 42.9732C78.8313 41.5593 76.928 40.5953 74.855 40.2035C72.782 39.8116 70.6324 40.0094 68.6785 40.7719C66.7246 41.5344 65.0542 42.8272 63.8789 44.4866C62.7036 46.1461 62.0763 48.0976 62.0763 50.0939C62.0733 51.4166 62.3465 52.7268 62.8801 53.9497C63.4137 55.1726 64.1973 56.2842 65.1861 57.2209C66.1749 58.1577 67.3495 58.9013 68.6428 59.4091C69.9361 59.917 71.3228 60.1792 72.7234 60.1807Z" fill="#2B3A36"/>
<path d="M3.02995 149.53C2.23798 149.53 1.545 149.311 0.951026 148.872C0.357048 148.402 0.0600586 147.823 0.0600586 147.133V119.03C0.0600586 118.341 0.30755 117.777 0.802531 117.338C1.29751 116.868 1.89149 116.633 2.58447 116.633H16.543C18.3249 116.633 19.9583 117.056 21.4433 117.902C22.9282 118.717 24.1162 119.86 25.0071 121.333C25.9311 122.774 26.3931 124.435 26.3931 126.314C26.3931 127.568 26.1291 128.774 25.6011 129.933C25.0731 131.061 24.3637 132.064 23.4727 132.941C22.5817 133.818 21.5753 134.476 20.4533 134.915L19.9088 134.022C20.9318 134.366 21.8228 134.868 22.5817 135.525C23.3407 136.152 23.9347 136.904 24.3637 137.781C24.8257 138.627 25.0731 139.598 25.1061 140.695C25.2051 141.666 25.2876 142.481 25.3536 143.139C25.4526 143.765 25.5846 144.282 25.7496 144.69C25.9146 145.097 26.2116 145.41 26.6406 145.629C27.2346 145.943 27.5976 146.413 27.7295 147.039C27.8945 147.666 27.7625 148.23 27.3336 148.731C27.0366 149.107 26.6571 149.358 26.1951 149.483C25.7661 149.577 25.3206 149.593 24.8587 149.53C24.3967 149.436 24.0007 149.311 23.6707 149.154C23.1427 148.841 22.5982 148.402 22.0373 147.838C21.5093 147.243 21.0803 146.428 20.7503 145.394C20.4203 144.361 20.2553 142.998 20.2553 141.306C20.2553 140.523 20.1233 139.849 19.8593 139.285C19.5953 138.721 19.2324 138.267 18.7704 137.922C18.3084 137.546 17.7639 137.28 17.1369 137.123C16.51 136.935 15.817 136.841 15.058 136.841H4.56439L5.25737 135.901V147.133C5.25737 147.823 5.05938 148.402 4.66339 148.872C4.2674 149.311 3.72292 149.53 3.02995 149.53ZM4.61389 132.753H16.444C17.2029 132.721 17.9289 132.439 18.6219 131.907C19.3479 131.343 19.9253 130.591 20.3543 129.651C20.8163 128.711 21.0473 127.646 21.0473 126.455C21.0473 124.952 20.5688 123.698 19.6118 122.696C18.6879 121.662 17.5824 121.145 16.2955 121.145H4.71289L5.25737 119.923V133.74L4.61389 132.753Z" fill="#2B3A36"/>
<path d="M36.2761 116.633H53.4025C54.0955 116.633 54.6729 116.853 55.1349 117.291C55.6299 117.73 55.8774 118.278 55.8774 118.936C55.8774 119.594 55.6299 120.127 55.1349 120.534C54.6729 120.941 54.0955 121.145 53.4025 121.145H38.454L38.949 120.346V130.873L38.5035 130.403H51.1751C51.868 130.403 52.4455 130.622 52.9075 131.061C53.4025 131.5 53.65 132.064 53.65 132.753C53.65 133.411 53.4025 133.943 52.9075 134.351C52.4455 134.758 51.868 134.962 51.1751 134.962H38.6025L38.949 134.539V145.394L38.6025 145.019H53.4025C54.0955 145.019 54.6729 145.253 55.1349 145.723C55.6299 146.162 55.8774 146.679 55.8774 147.274C55.8774 147.932 55.6299 148.48 55.1349 148.919C54.6729 149.326 54.0955 149.53 53.4025 149.53H36.2761C35.5831 149.53 34.9891 149.311 34.4942 148.872C33.9992 148.402 33.7517 147.823 33.7517 147.133V119.03C33.7517 118.341 33.9992 117.777 34.4942 117.338C34.9891 116.868 35.5831 116.633 36.2761 116.633Z" fill="#2B3A36"/>
<path d="M74.404 122.743L63.2669 148.12C63.0689 148.621 62.7719 149.013 62.376 149.295C61.98 149.577 61.5345 149.718 61.0395 149.718C60.3135 149.718 59.769 149.53 59.4061 149.154C59.0431 148.747 58.8451 148.246 58.8121 147.65C58.8121 147.431 58.8616 147.18 58.9606 146.898L71.5331 118.043C71.7641 117.511 72.0941 117.103 72.5231 116.821C72.9851 116.539 73.48 116.414 74.008 116.445C74.503 116.445 74.965 116.586 75.394 116.868C75.823 117.15 76.1365 117.542 76.3344 118.043L88.7585 146.475C88.8905 146.789 88.9565 147.102 88.9565 147.415C88.9565 148.105 88.709 148.668 88.214 149.107C87.752 149.514 87.224 149.718 86.6301 149.718C86.1351 149.718 85.6731 149.577 85.2441 149.295C84.8481 148.982 84.5511 148.59 84.3531 148.12L73.1171 122.884L74.404 122.743ZM65.2468 141.447L67.4743 136.935H81.4823L82.3237 141.447H65.2468Z" fill="#2B3A36"/>
<path d="M118.146 118.513C118.872 118.858 119.285 119.39 119.384 120.111C119.516 120.832 119.334 121.49 118.839 122.085C118.476 122.555 117.998 122.821 117.404 122.884C116.843 122.946 116.282 122.837 115.721 122.555C114.764 122.085 113.758 121.709 112.702 121.427C111.646 121.145 110.524 121.004 109.336 121.004C107.455 121.004 105.755 121.302 104.237 121.897C102.753 122.461 101.466 123.291 100.377 124.388C99.2877 125.453 98.4462 126.722 97.8522 128.194C97.2913 129.667 97.0108 131.296 97.0108 133.082C97.0108 135.056 97.3243 136.81 97.9512 138.345C98.5782 139.849 99.4362 141.134 100.525 142.199C101.647 143.233 102.951 144.016 104.435 144.549C105.953 145.05 107.587 145.3 109.336 145.3C110.458 145.3 111.547 145.175 112.603 144.925C113.692 144.674 114.715 144.298 115.672 143.797C116.266 143.515 116.843 143.421 117.404 143.515C117.998 143.577 118.476 143.844 118.839 144.314C119.4 144.972 119.598 145.645 119.433 146.334C119.301 146.992 118.889 147.494 118.196 147.838C117.371 148.277 116.464 148.653 115.474 148.966C114.484 149.279 113.477 149.53 112.454 149.718C111.431 149.906 110.392 150 109.336 150C106.96 150 104.716 149.624 102.604 148.872C100.492 148.12 98.6112 147.024 96.9613 145.582C95.3113 144.141 94.0079 142.371 93.0509 140.272C92.1269 138.173 91.665 135.776 91.665 133.082C91.665 130.669 92.0939 128.445 92.9519 126.408C93.8429 124.341 95.0803 122.57 96.6643 121.098C98.2812 119.594 100.162 118.435 102.307 117.62C104.452 116.774 106.795 116.351 109.336 116.351C110.92 116.351 112.454 116.539 113.939 116.915C115.457 117.291 116.86 117.824 118.146 118.513Z" fill="#2B3A36"/>
<path d="M136.3 149.53C135.508 149.53 134.864 149.311 134.369 148.872C133.907 148.402 133.676 147.823 133.676 147.133V118.983H138.972V147.133C138.972 147.823 138.708 148.402 138.18 148.872C137.686 149.311 137.059 149.53 136.3 149.53ZM125.063 121.145C124.37 121.145 123.777 120.941 123.282 120.534C122.787 120.095 122.539 119.531 122.539 118.842C122.539 118.184 122.787 117.652 123.282 117.244C123.777 116.837 124.37 116.633 125.063 116.633H147.585C148.278 116.633 148.856 116.853 149.318 117.291C149.813 117.699 150.06 118.231 150.06 118.889C150.06 119.578 149.813 120.127 149.318 120.534C148.856 120.941 148.278 121.145 147.585 121.145H125.063Z" fill="#2B3A36"/>
</svg>
