<svg width="40" height="40" viewBox="0 0 40 40" fill="none" xmlns="http://www.w3.org/2000/svg">
<g clip-path="url(#clip0_13_13)">
<path d="M1.46704 38.7175C1.1328 38.3458 0.965682 37.9091 0.965682 37.4073C0.965682 36.9064 1.1328 36.4701 1.46704 36.0984L23.4147 14.2056C22.6348 12.4978 22.477 10.6782 22.9414 8.74676C23.4057 6.81529 24.4548 5.03267 26.0886 3.3989C27.8712 1.65372 29.9604 0.567658 32.3563 0.14072C34.7512 -0.287108 36.7103 0.260601 38.2336 1.78385C39.7559 3.34364 40.2943 5.30274 39.8486 7.66115C39.403 10.0187 38.2701 12.1262 36.4501 13.9837C34.9277 15.5434 33.2101 16.5644 31.2974 17.0466C29.3846 17.5297 27.6301 17.437 26.0338 16.7685L22.6352 20.1671L38.5678 36.0984C38.9021 36.4701 39.0692 36.9064 39.0692 37.4073C39.0692 37.9091 38.9021 38.3458 38.5678 38.7175C38.1961 39.0883 37.7598 39.2737 37.2589 39.2737C36.7571 39.2737 36.3204 39.0883 35.9487 38.7175L20.0174 22.7849L4.08482 38.7175C3.71314 39.0883 3.27685 39.2737 2.77593 39.2737C2.27412 39.2737 1.83783 39.0883 1.46704 38.7175ZM9.5998 20.6123L2.97113 13.9837C1.29992 12.3124 0.334189 10.381 0.0739267 8.18925C-0.186336 5.99841 0.240602 3.91898 1.35474 1.95097C1.65244 1.43044 2.11681 1.14255 2.74786 1.08729C3.3789 1.03114 3.91725 1.24461 4.36291 1.7277L16.3956 13.8165L9.5998 20.6123Z" fill="#2B3A36"/>
</g>
<defs>
<clipPath id="clip0_13_13">
<rect width="40" height="40" fill="white"/>
</clipPath>
</defs>
</svg>
