<svg width="48" height="48" viewBox="0 0 48 48" fill="none" xmlns="http://www.w3.org/2000/svg">
<path d="M32.95 35.9C29.6167 35.9 26.7917 34.7417 24.475 32.425C22.1583 30.1083 21 27.2833 21 23.95C21 20.6167 22.1583 17.7917 24.475 15.475C26.7917 13.1583 29.6167 12 32.95 12C36.2833 12 39.1083 13.1583 41.425 15.475C43.7417 17.7917 44.9 20.6167 44.9 23.95C44.9 27.2833 43.7417 30.1083 41.425 32.425C39.1083 34.7417 36.2833 35.9 32.95 35.9ZM32.95 32.9C35.45 32.9 37.5667 32.0333 39.3 30.3C41.0333 28.5667 41.9 26.45 41.9 23.95C41.9 21.45 41.0333 19.3333 39.3 17.6C37.5667 15.8667 35.45 15 32.95 15C30.45 15 28.3333 15.8667 26.6 17.6C24.8667 19.3333 24 21.45 24 23.95C24 26.45 24.8667 28.5667 26.6 30.3C28.3333 32.0333 30.45 32.9 32.95 32.9Z" fill="#425F57"/>
<path d="M10.5 31.0577C8.4 31.0577 6.625 30.3327 5.175 28.8827C3.725 27.4327 3 25.6577 3 23.5577C3 21.4577 3.725 19.6827 5.175 18.2327C6.625 16.7827 8.4 16.0577 10.5 16.0577C12.6 16.0577 14.375 16.7827 15.825 18.2327C17.275 19.6827 18 21.4577 18 23.5577C18 25.6577 17.275 27.4327 15.825 28.8827C14.375 30.3327 12.6 31.0577 10.5 31.0577Z" fill="#2B3A36"/>
</svg>
