<svg width="151" height="150" viewBox="0 0 151 150" fill="none" xmlns="http://www.w3.org/2000/svg">
<path d="M63.0514 3.57143H10.7547C6.79822 3.57143 3.59082 6.7694 3.59082 10.7143V63.5714C3.59082 67.5163 6.79822 70.7143 10.7547 70.7143H63.0514C67.0079 70.7143 70.2153 67.5163 70.2153 63.5714V10.7143C70.2153 6.7694 67.0079 3.57143 63.0514 3.57143Z" stroke="#2B3A36" stroke-width="5"/>
<path d="M63.0514 79.2857H10.7547C6.79822 79.2857 3.59082 82.4837 3.59082 86.4286V139.286C3.59082 143.231 6.79822 146.429 10.7547 146.429H63.0514C67.0079 146.429 70.2153 143.231 70.2153 139.286V86.4286C70.2153 82.4837 67.0079 79.2857 63.0514 79.2857Z" stroke="#2B3A36" stroke-width="5"/>
<path d="M139.705 79.2857H87.4088C83.4522 79.2857 80.2449 82.4837 80.2449 86.4286V139.286C80.2449 143.231 83.4522 146.429 87.4088 146.429H139.705C143.662 146.429 146.869 143.231 146.869 139.286V86.4286C146.869 82.4837 143.662 79.2857 139.705 79.2857Z" stroke="#2B3A36" stroke-width="5"/>
<path d="M139.705 3.57143H87.4088C83.4522 3.57143 80.2449 6.7694 80.2449 10.7143V63.5714C80.2449 67.5163 83.4522 70.7143 87.4088 70.7143H139.705C143.662 70.7143 146.869 67.5163 146.869 63.5714V10.7143C146.869 6.7694 143.662 3.57143 139.705 3.57143Z" stroke="#2B3A36" stroke-width="5"/>
</svg>
